<svg width="30" height="30" viewBox="0 0 30 30" fill="none" xmlns="http://www.w3.org/2000/svg">
<circle cx="15" cy="15" r="15" fill="#ECF0F4"/>
<mask id="mask0_1_3165" style="mask-type:alpha" maskUnits="userSpaceOnUse" x="6" y="6" width="18" height="18">
<rect x="6" y="6" width="18" height="18" fill="#D9D9D9"/>
</mask>
<g mask="url(#mask0_1_3165)">
<path d="M15.0006 16.0496L11.3256 19.7246C11.1881 19.8621 11.0131 19.9309 10.8006 19.9309C10.5881 19.9309 10.4131 19.8621 10.2756 19.7246C10.1381 19.5871 10.0693 19.4121 10.0693 19.1996C10.0693 18.9871 10.1381 18.8121 10.2756 18.6746L13.9506 14.9996L10.2756 11.3246C10.1381 11.1871 10.0693 11.0121 10.0693 10.7996C10.0693 10.5871 10.1381 10.4121 10.2756 10.2746C10.4131 10.1371 10.5881 10.0684 10.8006 10.0684C11.0131 10.0684 11.1881 10.1371 11.3256 10.2746L15.0006 13.9496L18.6756 10.2746C18.8131 10.1371 18.9881 10.0684 19.2006 10.0684C19.4131 10.0684 19.5881 10.1371 19.7256 10.2746C19.8631 10.4121 19.9318 10.5871 19.9318 10.7996C19.9318 11.0121 19.8631 11.1871 19.7256 11.3246L16.0506 14.9996L19.7256 18.6746C19.8631 18.8121 19.9318 18.9871 19.9318 19.1996C19.9318 19.4121 19.8631 19.5871 19.7256 19.7246C19.5881 19.8621 19.4131 19.9309 19.2006 19.9309C18.9881 19.9309 18.8131 19.8621 18.6756 19.7246L15.0006 16.0496Z" fill="#32343E"/>
</g>
</svg>
